<svg width="23" height="19" viewBox="0 0 23 19" fill="none" xmlns="http://www.w3.org/2000/svg">
<path d="M0.0700912 4.74127C0.0700912 4.00284 0.493211 3.60466 1.33945 3.54674L4.60039 3.56846C4.81925 3.56846 4.96515 3.67706 5.03811 3.89424C5.37368 4.98018 5.74938 5.9177 6.16521 6.70681C6.58103 7.49592 7.12453 8.40449 7.79568 9.4325C7.85404 9.56281 7.94888 9.62797 8.08019 9.62797C8.18233 9.62797 8.26257 9.57729 8.32093 9.47594L8.38659 9.23703L8.40848 5.47971C8.40848 5.21908 8.34647 5.04533 8.22245 4.95846C8.09843 4.87158 7.86863 4.80643 7.53305 4.76299C7.27043 4.71955 7.13912 4.56028 7.13912 4.28518C7.13912 4.22726 7.14641 4.18383 7.161 4.15487C7.4674 3.21373 8.34282 2.74315 9.78726 2.74315L11.0129 2.72144C11.5673 2.72144 12.0269 2.85899 12.3916 3.13409C12.7564 3.40919 12.9388 3.84357 12.9388 4.43721V9.36735C13.0409 9.43974 13.1357 9.47594 13.2233 9.47594C13.4421 9.47594 13.6318 9.34563 13.7923 9.085C15.3973 6.85522 16.2654 5.36387 16.3967 4.61096C16.3967 4.59648 16.4113 4.56028 16.4405 4.50237C16.5426 4.28518 16.7104 4.09695 16.9438 3.93768C17.1773 3.77841 17.3815 3.66982 17.5566 3.6119C17.615 3.58294 17.6806 3.56846 17.7536 3.56846H21.1459L21.3647 3.59018C21.6565 3.59018 21.8827 3.72773 22.0432 4.00284C22.1015 4.08971 22.1416 4.18383 22.1635 4.28518C22.1854 4.38653 22.2 4.48789 22.2073 4.58924C22.2146 4.69059 22.2182 4.74851 22.2182 4.76299V4.91502C22.1161 5.50866 21.8571 6.14213 21.4413 6.8154C21.0255 7.48868 20.4966 8.21626 19.8546 8.99813C19.2126 9.78 18.8114 10.294 18.6509 10.5402C18.5196 10.7139 18.4539 10.8732 18.4539 11.018C18.4539 11.1338 18.5123 11.2641 18.629 11.4089L21.8243 15.4051C21.9994 15.6368 22.0869 15.8902 22.0869 16.1653C22.0869 16.4983 21.9556 16.7734 21.693 16.9906C21.4304 17.2078 21.1167 17.3309 20.7519 17.3598L20.3799 17.3815H17.0533C17.0387 17.3815 17.0095 17.3852 16.9657 17.3924C16.9219 17.3996 16.8928 17.4033 16.8782 17.4033C16.5572 17.4033 16.2581 17.2657 15.9809 16.9906C15.8787 16.8748 15.193 16.0205 13.9236 14.4278C13.8507 14.3264 13.7485 14.2323 13.6172 14.1455C13.5589 14.3771 13.4823 14.7101 13.3874 15.1445C13.2926 15.5789 13.2233 15.8902 13.1795 16.0784L13.1139 16.4476C12.968 16.9544 12.6616 17.2585 12.1947 17.3598L11.8883 17.3815H9.74349C8.53249 17.3815 7.32514 16.8313 6.12144 15.7309C4.91773 14.6305 3.8344 13.2079 2.87144 11.4632C1.90848 9.71847 1.01117 7.68777 0.179519 5.37111C0.106567 5.18288 0.0700912 4.97294 0.0700912 4.74127ZM13.2233 10.3664C12.9169 10.3664 12.6397 10.2832 12.3916 10.1166C12.1436 9.95013 12.0196 9.72208 12.0196 9.4325V4.43721C12.0196 4.14763 11.9466 3.9413 11.8007 3.81823C11.6548 3.69516 11.3995 3.63362 11.0347 3.63362L9.78726 3.67706C9.15988 3.67706 8.68569 3.78565 8.36471 4.00284C9.00668 4.3069 9.32767 4.79919 9.32767 5.47971V9.30219C9.29849 9.66417 9.15258 9.96461 8.88996 10.2035C8.62733 10.4424 8.33552 10.5619 8.01454 10.5619C7.57683 10.5619 7.24125 10.3519 7.0078 9.93203C5.86975 8.2235 5.02351 6.60184 4.46908 5.06705L4.27211 4.50237L1.36134 4.48065C1.17166 4.48065 1.06588 4.49151 1.044 4.51323C1.02211 4.53494 1.01117 4.59648 1.01117 4.69783C1.01117 4.82815 1.02576 4.9657 1.05494 5.11049L1.51454 6.32673C2.74013 9.4687 4.07149 11.9446 5.50864 13.7545C6.94579 15.5644 8.35741 16.4693 9.74349 16.4693H11.932C12.0196 16.4693 12.0852 16.444 12.129 16.3933C12.1728 16.3427 12.2093 16.2449 12.2384 16.1001L12.2822 15.8829L12.698 13.9717C12.8148 13.7111 12.9169 13.5373 13.0044 13.4505C13.1649 13.2912 13.3546 13.2116 13.5735 13.2116C13.9236 13.2116 14.2811 13.4215 14.6459 13.8414L16.5061 16.187C16.6228 16.3752 16.7469 16.4693 16.8782 16.4693H20.4893C20.927 16.4693 21.1459 16.3608 21.1459 16.1436C21.1459 16.0712 21.124 15.9988 21.0802 15.9264L17.9068 11.9953C17.6588 11.6912 17.5347 11.3655 17.5347 11.018C17.5347 10.6705 17.6515 10.3374 17.8849 10.0189C18.0746 9.72932 18.443 9.24789 18.9901 8.57462C19.5373 7.90134 20.0151 7.2715 20.4236 6.68509C20.8322 6.09869 21.1021 5.56658 21.2334 5.08877L21.299 4.80643C21.2845 4.77747 21.2772 4.73041 21.2772 4.66526C21.2772 4.6001 21.2699 4.5458 21.2553 4.50237H17.8193C17.6004 4.58924 17.4253 4.71955 17.294 4.8933L17.1627 5.30596C16.7979 6.30502 15.8423 7.84704 14.2957 9.93203C13.9893 10.2216 13.6318 10.3664 13.2233 10.3664Z" fill="#666666"/>
</svg>
